<?xml version="1.0" encoding="utf-8"?>
<!-- Generator: Adobe Illustrator 19.0.0, SVG Export Plug-In . SVG Version: 6.00 Build 0)  -->
<svg version="1.1" id="Layer_1" xmlns="http://www.w3.org/2000/svg" xmlns:xlink="http://www.w3.org/1999/xlink" x="0px" y="0px"
	 viewBox="0 0 560 560" style="enable-background:new 0 0 560 560;" xml:space="preserve">
<style type="text/css">
	.st0{fill:#24275D;}
	.st1{fill:#FFC10B;}
</style>
<g id="XMLID_179_">
	<g id="XMLID_200_">
		<path id="XMLID_204_" class="st0" d="M484.7,228.1c47.5,22.6,66.6,80.1,43.6,127.4C485.8,442.7,396.8,506,296.7,509.1
			c-12,0.4-23.9-0.1-35.5-1.2C158.9,497.5,73.7,429.3,38.9,336.4C28,307.3,22,275.9,22,243c0-34.8,6.7-68.1,18.8-98.6
			c20.1,82.7,94.7,144.1,183.6,144.1c7,0,13.9-0.4,20.7-1.1c10.7-6.5,21.1-13.6,31-21.2c5.8-4.4,11.4-9,16.9-13.7
			c11.7-10.2,24.5-19.1,38.6-25.5c22.9-10.5,48.4-16.3,75.2-16.3C434.7,210.6,461,216.9,484.7,228.1z"/>
		<path id="XMLID_201_" class="st0" d="M375.2,213.4c-27.6,36.5-68.3,62.7-115,71.7c-4.9,1-10,1.7-15.1,2.3
			c10.7-6.5,21.1-13.6,31-21.2c9.6-7.3,18.7-15.1,27.5-23.3C324.7,228.2,349,218,375.2,213.4z"/>
	</g>
	<path id="XMLID_191_" class="st1" d="M245.1,287.3c-52.5,31.8-114.1,50.1-180,50.1c-8.8,0-17.6-0.3-26.2-1
		C28,307.3,22,275.9,22,243c0-34.8,6.7-68.1,18.8-98.6c20.1,82.7,94.7,144.1,183.6,144.1C231.4,288.5,238.3,288.1,245.1,287.3z"/>
	<circle id="XMLID_180_" class="st1" cx="213.6" cy="110.3" r="59.6"/>
</g>
</svg>
