<svg xmlns="http://www.w3.org/2000/svg" width="191.351" height="40.494" viewBox="0 0 191.351 40.494">
  <g id="Group_455" data-name="Group 455" transform="translate(-105 -26.412)">
    <circle id="Ellipse_98" data-name="Ellipse 98" cx="3.062" cy="3.062" r="3.062" transform="translate(138.319 38.771)" fill="#24275d"/>
    <path id="Path_6475" data-name="Path 6475" d="M505.977,377.445" transform="translate(-295.205 -351.033)" fill="#24275d"/>
    <path id="Path_6476" data-name="Path 6476" d="M233.848,440.011V415.769h16.231v4.583H239.305v5.072h9.585v4.583h-9.585v10Z" transform="translate(-128.848 -374.461)" fill="#24275d"/>
    <path id="Path_6477" data-name="Path 6477" d="M293.9,434.811q-.7-.175-1.644-.367a10.194,10.194,0,0,0-2.029-.192,9.489,9.489,0,0,0-1.172.087,6.93,6.93,0,0,0-1.032.192v14.063h-5.212V431.173a31.453,31.453,0,0,1,3.306-.927,19.069,19.069,0,0,1,4.25-.437q.42,0,1.014.052t1.189.14q.595.088,1.189.21a5.653,5.653,0,0,1,1.015.3Z" transform="translate(-158.779 -383.044)" fill="#24275d"/>
    <path id="Path_6478" data-name="Path 6478" d="M326,449.2h-5.212V430.8H326Z" transform="translate(-181.997 -383.649)" fill="#24275d"/>
    <path id="Path_6479" data-name="Path 6479" d="M344.547,439.369a11.248,11.248,0,0,1,.752-4.285,9.18,9.18,0,0,1,1.977-3.061,8.22,8.22,0,0,1,2.816-1.854,8.816,8.816,0,0,1,3.271-.63,8.131,8.131,0,0,1,6.192,2.4q2.273,2.4,2.274,7.049,0,.455-.035,1t-.07.962H349.9a3.46,3.46,0,0,0,1.5,2.554,6.045,6.045,0,0,0,3.568.944,15.061,15.061,0,0,0,2.816-.262,10.617,10.617,0,0,0,2.256-.647l.7,4.233a7.228,7.228,0,0,1-1.119.42,14.7,14.7,0,0,1-1.557.367q-.858.157-1.836.262a18.37,18.37,0,0,1-1.959.105,11.6,11.6,0,0,1-4.32-.735,8.411,8.411,0,0,1-3.043-2.011,7.978,7.978,0,0,1-1.784-3.026A11.981,11.981,0,0,1,344.547,439.369Zm12.244-1.994a5.4,5.4,0,0,0-.227-1.294,3.242,3.242,0,0,0-.595-1.119,3.174,3.174,0,0,0-1.014-.8,3.305,3.305,0,0,0-1.522-.315,3.5,3.5,0,0,0-1.5.3,3.119,3.119,0,0,0-1.049.787,3.522,3.522,0,0,0-.647,1.137,7.449,7.449,0,0,0-.332,1.312Z" transform="translate(-196.52 -382.879)" fill="#24275d"/>
    <path id="Path_6480" data-name="Path 6480" d="M399.357,430.768a29.19,29.19,0,0,1,3.428-.717,28.169,28.169,0,0,1,4.408-.332,10.746,10.746,0,0,1,3.9.612,5.871,5.871,0,0,1,2.466,1.732,6.763,6.763,0,0,1,1.294,2.659,14.162,14.162,0,0,1,.385,3.428v10.39h-5.212v-9.76a7.03,7.03,0,0,0-.665-3.568,2.712,2.712,0,0,0-2.484-1.049q-.56,0-1.189.052t-1.119.122v14.2h-5.212Z" transform="translate(-230.027 -382.989)" fill="#24275d"/>
    <path id="Path_6481" data-name="Path 6481" d="M467.221,434.85q-.7.21-1.609.4t-1.906.332q-1,.139-2.029.227t-1.977.087a11.575,11.575,0,0,1-4.058-.665,8.141,8.141,0,0,1-3.009-1.906,8.261,8.261,0,0,1-1.871-3.008,11.471,11.471,0,0,1-.648-3.97,13.579,13.579,0,0,1,.56-4.04,8.786,8.786,0,0,1,1.609-3.061,6.889,6.889,0,0,1,2.571-1.924,8.625,8.625,0,0,1,3.481-.665,8.179,8.179,0,0,1,1.941.21,10.551,10.551,0,0,1,1.732.595v-8.326l5.212-.84ZM455.433,426.1a6.384,6.384,0,0,0,1.084,3.883,3.744,3.744,0,0,0,3.218,1.469q.7,0,1.295-.052t.979-.122V421.8a4.533,4.533,0,0,0-1.277-.525,6.154,6.154,0,0,0-1.592-.21Q455.432,421.067,455.433,426.1Z" transform="translate(-261.056 -369.895)" fill="#24275d"/>
    <path id="Path_6482" data-name="Path 6482" d="M510.3,444.686a5.2,5.2,0,0,0,2.029-.28,1.081,1.081,0,0,0,.595-1.084,1.329,1.329,0,0,0-.77-1.1,14.684,14.684,0,0,0-2.344-1.067,23.782,23.782,0,0,1-2.221-.944,6.534,6.534,0,0,1-1.7-1.172,4.739,4.739,0,0,1-1.084-1.627,6.02,6.02,0,0,1-.384-2.274,4.917,4.917,0,0,1,1.924-4.093,8.37,8.37,0,0,1,5.282-1.5,16.968,16.968,0,0,1,3.218.3,15.023,15.023,0,0,1,2.449.647l-.91,4.058a19.237,19.237,0,0,0-1.977-.56,10.765,10.765,0,0,0-2.4-.245q-2.449,0-2.448,1.364a1.4,1.4,0,0,0,.105.56,1.19,1.19,0,0,0,.42.472,5.892,5.892,0,0,0,.857.492q.542.265,1.382.581a21.413,21.413,0,0,1,2.833,1.252,6.771,6.771,0,0,1,1.766,1.332,4.119,4.119,0,0,1,.91,1.589,7.059,7.059,0,0,1,.262,2.024,4.665,4.665,0,0,1-2.047,4.119,10.209,10.209,0,0,1-5.789,1.4,16.632,16.632,0,0,1-4.075-.42,16.444,16.444,0,0,1-2.257-.7l.875-4.233a17.047,17.047,0,0,0,2.729.822A13.273,13.273,0,0,0,510.3,444.686Z" transform="translate(-293.957 -382.879)" fill="#24275d"/>
    <path id="Path_6483" data-name="Path 6483" d="M621.828,415.049q5.422,0,8.326,1.906t2.9,6.244q0,4.373-2.939,6.314t-8.4,1.942H620.01v8.116h-5.458V415.679a30.928,30.928,0,0,1,3.778-.49Q620.324,415.049,621.828,415.049Zm.35,4.653q-.6,0-1.172.035t-1,.07v7h1.714a9.288,9.288,0,0,0,4.268-.77,2.957,2.957,0,0,0,1.434-2.868,3.443,3.443,0,0,0-.367-1.679,2.794,2.794,0,0,0-1.049-1.067,4.734,4.734,0,0,0-1.661-.56A13.715,13.715,0,0,0,622.178,419.7Z" transform="translate(-361.58 -374.021)" fill="#24275d"/>
    <path id="Path_6484" data-name="Path 6484" d="M688.778,440.011q-2.344-4.162-5.072-8.221a83.627,83.627,0,0,0-5.807-7.661v15.882h-5.387V415.769h4.443q1.155,1.154,2.554,2.833t2.851,3.586q1.451,1.907,2.886,3.953t2.694,3.935V415.769h5.422v24.242Z" transform="translate(-397.009 -374.461)" fill="#24275d"/>
    <path id="Path_6485" data-name="Path 6485" d="M563.932,421.215a.3.3,0,0,0,.543-.041l13.809-37a.832.832,0,0,0-.779-1.122h0a.831.831,0,0,0-.733.439l-12.944,23.386-11.182-8.507a.646.646,0,0,0-.838.064h0a.645.645,0,0,0-.108.77Z" transform="translate(-323.108 -354.464)" fill="#ffc10b"/>
  </g>
</svg>
