<svg xmlns="http://www.w3.org/2000/svg" width="853.247" height="758.113" viewBox="0 0 853.247 758.113">
  <g id="Group_2763" data-name="Group 2763" transform="translate(6552.038 -2635.834)">
    <g id="Group_436" data-name="Group 436" transform="translate(2476 5721)">
      <g id="Group_435" data-name="Group 435" transform="translate(0 -1)">
        <path id="Path_6486" data-name="Path 6486" d="M890.5,1008.995c78.508,37.382,110.185,132.419,72.13,210.609-70.159,144.145-217.479,248.889-382.956,254.009a449.449,449.449,0,0,1-58.683-2.037c-169.16-17.086-310.046-129.915-367.622-283.49-18.045-48.1-20.953-99.985-20.953-154.385,0-57.578,7.087-70.8,27.209-121.2,33.272,136.736,148.935,198.749,295.929,198.749,11.583,0,27.584-3.152,38.847-4.365A580.94,580.94,0,0,0,545.72,1071.9q14.326-10.9,27.91-22.7c19.37-16.81,40.537-31.559,63.865-42.216a300.086,300.086,0,0,1,253,2.01Z" transform="translate(-9153.494 -3799.877)" fill="#fff"/>
        <path id="Path_6488" data-name="Path 6488" d="M494.4,1106.889a573.245,573.245,0,0,1-297.676,82.81q-21.872,0-43.356-1.613a441.925,441.925,0,0,1,3.256-317.581c33.272,136.736,156.538,238.242,303.532,238.242A319.336,319.336,0,0,0,494.4,1106.889Z" transform="translate(-9153.494 -3799.877)" fill="#ffc10b"/>
        <circle id="Ellipse_99" data-name="Ellipse 99" cx="98.501" cy="98.501" r="98.501" transform="translate(-8809.708 -3084.166)" fill="#ffc10b"/>
      </g>
    </g>
  </g>
</svg>
